<svg xmlns="http://www.w3.org/2000/svg" viewBox="0 0 600 400">
  <path fill="#f00" d="M0 0h600v400H0z"/>
  <path fill="#060" d="M0 0h240v400H0z"/>
  <g fill="#ff0" fill-rule="evenodd" stroke="#000" stroke-width="0.573" stroke-linecap="round" stroke-linejoin="round">
    <path d="M318.665 262.098c-18.8 0-53.107-13.892-53.107-62.53 0-51.27 34.29-79.493 55.8-79.493 30.15 0 43.6 27.3 47.358 42.49l-43.6 10.3c-5.64-13.9-1.88-15.78-17.48-15.78-15.6 0-18.807 27.34-18.807 43.093 0 18.847 6.58 26.385 19.74 26.385 7.52 0 22.144-6.58 22.144-16.745h-26.384v-33.488h75.54v28.77c0 22.17-35.23 56.997-61.204 56.997z" stroke-width="1.15"/>
    <path d="M164.32 158.65h-11.283V148.3h-22.564v10.348H119.19v25.03h11.283v-11.282h22.564v11.283h11.282v-25.03zM159.47 99.787l-6.434-10.348-6.435 10.348h-31.45l6.436 10.35h-4.29l-6.436 10.348h10.725l-6.435 10.348h31.45l-6.434-10.348h4.29l-6.433-10.35h10.724l-6.435-10.347h16.157zM159.47 210.856l-6.434-10.348-6.435 10.348h-31.45l6.436 10.35h-4.29l-6.436 10.348h10.725l-6.435 10.348h31.45l-6.434-10.348h4.29l-6.433-10.35h10.724l-6.435-10.347h16.157zM119.96 227.14a5.386 5.386 0 1 1-10.772 0 5.386 5.386 0 0 1 10.77 0zM118.72 259.56c0 2.973-2.412 5.384-5.385 5.384s-5.385-2.41-5.385-5.384 2.412-5.385 5.385-5.385 5.386 2.412 5.386 5.385zM118.72 285.43c0 2.972-2.412 5.384-5.385 5.384s-5.385-2.412-5.385-5.384 2.412-5.385 5.385-5.385 5.386 2.413 5.386 5.386zM118.72 207.36c0 2.973-2.412 5.385-5.385 5.385s-5.385-2.412-5.385-5.385 2.412-5.385 5.385-5.385 5.386 2.412 5.386 5.385zM118.72 172.05c0 2.973-2.412 5.385-5.385 5.385s-5.385-2.412-5.385-5.385 2.412-5.385 5.385-5.385 5.386 2.412 5.386 5.385zM118.72 140.43c0 2.974-2.412 5.386-5.385 5.386s-5.385-2.412-5.385-5.385 2.412-5.385 5.385-5.385 5.386 2.41 5.386 5.384zM118.72 108.03c0 2.97-2.412 5.383-5.385 5.383s-5.385-2.412-5.385-5.384 2.412-5.386 5.385-5.386 5.386 2.412 5.386 5.385zM187.42 227.14a5.386 5.386 0 1 1-10.772 0 5.386 5.386 0 0 1 10.77 0zM186.18 259.56c0 2.973-2.41 5.384-5.384 5.384s-5.384-2.41-5.384-5.384 2.41-5.385 5.385-5.385 5.385 2.412 5.385 5.385zM186.18 285.43c0 2.972-2.41 5.384-5.384 5.384s-5.384-2.412-5.384-5.384 2.41-5.385 5.385-5.385 5.385 2.413 5.385 5.386zM186.18 207.36c0 2.973-2.41 5.385-5.384 5.385s-5.384-2.412-5.384-5.385 2.41-5.385 5.385-5.385 5.385 2.412 5.385 5.385zM186.18 172.05c0 2.973-2.41 5.385-5.384 5.385s-5.384-2.412-5.384-5.385 2.41-5.385 5.385-5.385 5.385 2.412 5.385 5.385zM186.18 140.43c0 2.974-2.41 5.386-5.384 5.386s-5.384-2.412-5.384-5.385 2.41-5.385 5.385-5.385 5.385 2.41 5.385 5.384zM186.18 108.03c0 2.97-2.41 5.383-5.384 5.383s-5.384-2.412-5.384-5.384 2.41-5.386 5.385-5.386 5.385 2.412 5.385 5.385zM153.68 118.63c0 2.97-2.41 5.383-5.384 5.383s-5.384-2.412-5.384-5.384 2.41-5.386 5.385-5.386 5.385 2.412 5.385 5.385zM153.68 151.17c0 2.974-2.41 5.386-5.384 5.386s-5.384-2.412-5.384-5.385 2.41-5.385 5.385-5.385 5.385 2.41 5.385 5.384zM153.68 185.7c0 2.973-2.41 5.385-5.384 5.385s-5.384-2.412-5.384-5.385 2.41-5.385 5.385-5.385 5.385 2.412 5.385 5.385zM153.68 220.22c0 2.974-2.41 5.386-5.384 5.386s-5.384-2.413-5.384-5.386 2.41-5.385 5.385-5.385 5.385 2.412 5.385 5.385zM153.68 249.71c0 2.973-2.41 5.384-5.384 5.384s-5.384-2.41-5.384-5.384 2.41-5.385 5.385-5.385 5.385 2.412 5.385 5.385zM153.68 274.73c0 2.973-2.41 5.385-5.384 5.385s-5.384-2.413-5.384-5.386 2.41-5.386 5.385-5.386 5.385 2.413 5.385 5.386zM460.39 219.95c0 24.92-25.234 45.12-56.36 45.12s-56.36-20.2-56.36-45.12 25.234-45.12 56.36-45.12 56.36 20.2 56.36 45.12zm-16.3 0c0 17.444-17.923 31.58-40.06 31.58s-40.06-14.136-40.06-31.58 17.923-31.58 40.06-31.58 40.06 14.136 40.06 31.58z"/>
    <path d="M404.09 180.07c-21.92 0-39.69 17.82-39.69 39.8s17.77 39.8 39.69 39.8 39.69-17.82 39.69-39.8-17.77-39.8-39.69-39.8zm0 10.15c16.38 0 29.66 13.32 29.66 29.75s-13.28 29.75-29.66 29.75-29.66-13.32-29.66-29.75 13.28-29.75 29.66-29.75z"/>
    <path d="M412.79 180.52l-17.24.22 18.86 38.99-1.62-39.21zM421.33 183.82l-15.76 6.9 29.98 31.53-14.22-38.43zM426.58 190.25l-12.13 12.35 37.58 19.98-25.45-32.33zM427.91 198.63l-7.03 16.05 40.59 6.47-33.56-22.52zM424.97 207.22l-.9 17.56 38.7-7.6-37.8-9.96zM418.58 214.25l5.46 16.74 31.88-20.45-37.34 3.71zM409.72 218.07l11.22 13.45 20.9-30.25-32.12 16.8zM399.85 217.98l15.37 7.93 7.62-36.27-22.99 28.34zM391.12 214.03l17.21 1.17-6.7-36.5-10.51 35.33zM385.27 206.86l16.44-5.75-20.35-31.03 3.91 36.78zM383.4 197.75l13.08-11.53-31.24-20.9 18.16 32.43zM385.65 188.32l7.63-15.77-37.77-7.03 30.14 22.8zM391.53 180.42l.89-17.56-38.7 7.6 37.81 9.96zM400.24 175.35l-6.32-16.42-31.02 21.61 37.34-5.19zM409.8 174.19l-12.46-11.97-18.7 31.55 31.16-19.58z"/>
  </g>
</svg>
